<svg width="224" height="221" viewBox="0 0 224 221" fill="none" xmlns="http://www.w3.org/2000/svg">
<path d="M222.358 110.504C222.358 88.9705 215.928 67.9209 203.881 50.0167C191.833 32.1125 174.71 18.158 154.675 9.91757C134.641 1.67719 112.596 -0.478886 91.3278 3.72202C70.0596 7.92293 50.5235 18.2921 35.19 33.5184C19.8565 48.7446 9.41419 68.144 5.18368 89.2634C0.953165 110.383 3.12439 132.274 11.4228 152.168C19.7213 172.062 33.7743 189.066 51.8046 201.029C69.8349 212.992 91.0328 219.377 112.718 219.377C141.796 219.377 169.684 207.907 190.245 187.489C210.807 167.071 222.358 139.379 222.358 110.504Z" fill="#0F2D69"/>
<path d="M112.718 219.377C173.271 219.377 222.358 170.633 222.358 110.504C222.358 50.3744 173.271 1.63 112.718 1.63C52.1647 1.63 3.0769 50.3744 3.0769 110.504C3.0769 170.633 52.1647 219.377 112.718 219.377Z" stroke="white" stroke-width="4.5" stroke-miterlimit="10"/>
<path d="M151.035 52.7125H80.1421V167.418H151.035V52.7125Z" fill="white"/>
<path d="M150.714 57.0087H74.9329V164.426H150.714V57.0087Z" fill="white"/>
<path d="M109.624 106.338V101.527H109.734C112.277 101.541 114.79 100.974 117.077 99.8702C119.364 98.766 121.365 97.1542 122.925 95.1594C125.339 92.3202 126.678 88.7326 126.711 85.0168H109.741V80.2715H126.565C126.183 77.0569 124.921 74.0076 122.917 71.4547C119.058 66.7021 113.608 65.9125 110.018 65.9125H100.417V152.161H109.763V119.958H121.969V152.096H132.54V137.121C132.54 117.212 126.127 106.338 109.646 106.338" fill="#0F2D69"/>
<path d="M145.797 157.399H87.1753V61.1092H107.713H108.209H113.192C123.019 61.1092 127.141 62.8262 131.796 66.3906C138.567 71.6647 139.639 79.3224 139.639 83.1549C139.704 88.2287 137.907 93.1526 134.583 97.0067C132.091 100.125 128.846 102.567 125.15 104.107C140.055 109.337 145.797 121.226 145.797 138.881V157.399ZM112.754 38.7013C98.4325 38.7013 84.4324 42.9186 72.5244 50.8198C60.6164 58.721 51.3354 69.9512 45.855 83.0904C40.3747 96.2295 38.9411 110.687 41.7357 124.635C44.5302 138.584 51.4274 151.396 61.5549 161.451C71.6824 171.507 84.5854 178.355 98.6321 181.128C112.679 183.902 127.238 182.477 140.47 177.033C153.701 171.59 165.009 162.373 172.965 150.547C180.921 138.722 185.166 124.819 185.165 110.598C185.163 91.529 177.533 73.2419 163.954 59.7589C150.374 46.2758 131.957 38.7013 112.754 38.7013Z" fill="#0F2D69"/>
<path d="M89.5683 189.399C87.5693 188.826 86.1247 189.254 85.6723 190.79C85.2638 192.188 86.1393 193.34 88.4521 193.999L91.9029 194.999L93.2307 190.456L89.5683 189.399ZM88.3718 196.643C86.4968 196.107 85.0157 196.469 84.5634 198.034C84.184 199.331 84.9938 200.44 86.8761 200.983L89.8966 201.852L91.188 197.455L88.3718 196.643ZM92.0197 205.156L85.6723 203.555C84.0478 203.163 82.6464 202.147 81.7764 200.729C81.5121 200.259 81.3485 199.739 81.2958 199.203C81.243 198.667 81.3023 198.126 81.47 197.614C81.6841 196.83 82.1277 196.126 82.7446 195.592C83.3614 195.059 84.1238 194.718 84.9354 194.615C83.1772 193.39 82.1412 191.883 82.8124 189.594C83.6806 186.638 86.5916 185.762 90.3051 186.834L96.8276 188.71L92.0197 205.156Z" fill="white"/>
<path d="M70.7379 187.892C68.7462 186.732 68.1042 185.24 69.0089 183.719C70.0011 182.038 71.6499 181.828 73.5979 182.994L75.9033 184.342L72.985 189.246L70.7379 187.892ZM74.9403 180.611C71.4748 178.582 68.1917 179.162 66.4188 182.168C64.646 185.175 65.93 188.138 69.2861 190.137L71.6572 191.521L68.4836 196.868L71.0954 198.396L79.8941 183.545L74.9403 180.611Z" fill="white"/>
<path d="M63.9441 173.896L53.9614 187.995L56.4382 189.725L66.4209 175.625L63.9441 173.896Z" fill="white"/>
<path d="M18.7336 101.846C18.5293 104.302 19.631 105.128 20.988 105.244C22.7682 105.382 23.7823 103.911 23.9063 102.172L24.0668 100.209L18.9598 99.7886C18.8722 100.6 18.7919 101.281 18.7482 101.846H18.7336ZM33.1719 100.991L26.9413 100.433L26.7735 102.549L30.8445 105.939C32.8727 107.635 33.2521 109.663 32.5882 111.069L29.9618 111.119C30.0831 110.574 30.0536 110.005 29.8763 109.475C29.6991 108.944 29.3807 108.471 28.9549 108.106L25.9345 105.519C25.4908 106.492 24.7451 107.299 23.8063 107.82C22.8676 108.342 21.7852 108.551 20.718 108.417C17.7267 108.171 15.4286 106.461 15.8152 101.774C15.859 101.288 16.2604 97.5138 16.4282 96.5575L33.595 97.9268L33.1719 100.991Z" fill="white"/>
<path d="M46.6108 164.354C47.5857 164.142 48.5995 164.191 49.5491 164.495C50.4987 164.799 51.3502 165.348 52.017 166.085C52.5534 166.669 52.9662 167.355 53.2309 168.1C53.4956 168.846 53.6068 169.637 53.5578 170.426C53.5088 171.216 53.3007 171.987 52.9458 172.695C52.5908 173.403 52.0964 174.032 51.4917 174.547C48.9819 176.858 45.3267 176.959 42.9848 174.445C42.3187 173.743 41.8439 172.883 41.6052 171.948C41.3665 171.012 41.3717 170.032 41.6205 169.099L38.5709 168.461C38.2023 170.319 38.4374 172.245 39.2425 173.961C40.0476 175.677 41.3809 177.094 43.0501 178.009C44.7192 178.924 46.6379 179.288 48.5292 179.05C50.4205 178.812 52.1868 177.983 53.5729 176.683C54.9591 175.383 55.8935 173.68 56.2414 171.819C56.5893 169.957 56.3328 168.034 55.5086 166.327C54.6845 164.62 53.3354 163.217 51.6562 162.321C49.9769 161.424 48.0543 161.081 46.1657 161.34L46.6108 164.354Z" fill="white"/>
<path d="M27.4886 127.087L20.1928 125.283L26.511 121.284C26.635 122.255 26.7736 123.233 26.9341 124.182C27.0946 125.131 27.2625 126.109 27.4522 127.08L27.4886 127.087ZM16.3625 124.413L16.8076 127.181L35.5139 131.955L34.6968 128.825L30.3632 127.761C30.0859 126.435 29.8306 125.094 29.6336 123.761C29.4366 122.428 29.2323 121.074 29.0791 119.719L32.8583 117.401L32.6322 114.083L16.3625 124.413Z" fill="white"/>
<path d="M35.0251 139.287C35.8277 141.422 36.7128 143.52 37.6807 145.582L24.687 151.929C25.1247 152.842 25.5698 153.747 26.0294 154.646L39.0305 148.299C40.0616 150.294 41.1754 152.245 42.3719 154.153L29.349 160.572C29.867 161.434 30.4069 162.289 30.954 163.129L44.0864 156.747L46.6472 155.493C42.3454 149.241 38.965 142.41 36.6082 135.208L34.0547 136.454L20.9224 142.851C21.258 143.8 21.652 144.742 21.9803 145.677L35.0251 139.287Z" fill="white"/>
<path d="M198.166 85.3427C198.923 85.0962 199.623 84.7011 200.223 84.1808C200.823 83.6605 201.312 83.0257 201.661 82.314C202.009 81.6024 202.21 80.8285 202.251 80.0383C202.293 79.2481 202.174 78.4577 201.901 77.714C200.697 74.5046 197.283 73.2223 194.073 74.4032C193.316 74.6505 192.617 75.0462 192.018 75.5668C191.418 76.0874 190.93 76.7223 190.582 77.4338C190.235 78.1454 190.035 78.9191 189.994 79.7089C189.953 80.4988 190.072 81.2887 190.345 82.0319C191.541 85.2341 194.963 86.5236 198.166 85.3427ZM192.964 71.4256C194.645 70.7854 196.48 70.6561 198.235 71.0541C199.99 71.4521 201.586 72.3595 202.821 73.6608C204.055 74.9621 204.872 76.5986 205.167 78.3622C205.463 80.1257 205.223 81.9366 204.479 83.5646C203.735 85.1926 202.52 86.5641 200.989 87.5046C199.458 88.4452 197.68 88.9123 195.881 88.8467C194.082 88.781 192.343 88.1854 190.885 87.1358C189.428 86.0861 188.318 84.6298 187.696 82.952C187.263 81.8532 187.057 80.6794 187.088 79.4999C187.12 78.3204 187.389 77.1591 187.88 76.0846C188.371 75.0102 189.074 74.0443 189.947 73.2441C190.82 72.4439 191.846 71.8256 192.964 71.4256Z" fill="white"/>
<path d="M199.311 131.687C200.09 131.854 200.895 131.865 201.678 131.717C202.461 131.569 203.206 131.267 203.869 130.827C204.532 130.388 205.099 129.821 205.537 129.16C205.974 128.498 206.274 127.757 206.417 126.978C207.015 123.609 204.724 120.784 201.354 120.197C200.575 120.03 199.771 120.019 198.989 120.167C198.206 120.314 197.461 120.616 196.798 121.054C196.136 121.493 195.568 122.059 195.13 122.719C194.692 123.38 194.392 124.121 194.248 124.899C193.65 128.268 195.94 131.1 199.311 131.687ZM201.908 117.067C203.685 117.358 205.334 118.167 206.646 119.392C207.958 120.616 208.874 122.2 209.277 123.942C209.68 125.685 209.552 127.507 208.909 129.177C208.266 130.847 207.138 132.289 205.667 133.321C204.197 134.352 202.451 134.926 200.651 134.969C198.851 135.013 197.079 134.523 195.56 133.564C194.041 132.604 192.843 131.218 192.12 129.581C191.396 127.944 191.18 126.13 191.497 124.37C191.683 123.205 192.102 122.088 192.729 121.086C193.357 120.084 194.18 119.217 195.15 118.536C196.121 117.856 197.219 117.375 198.38 117.123C199.54 116.87 200.74 116.852 201.908 117.067Z" fill="white"/>
<path d="M185.42 67.5063L187.229 61.9061L197.764 63.355L195.897 60.3485L186.638 59.3125L185.668 57.8635L191.702 53.9297L189.863 51.5027L175.52 60.8773L177.307 63.3333L183.304 59.4212L184.457 61.1599L182.669 66.2674C181.714 68.861 181.48 71.3749 183.538 73.0992L185.726 71.6502C184.771 70.8316 184.763 69.4768 185.391 67.5135" fill="white"/>
<path d="M154.114 183.784L159.702 185.733L157.93 196.143L161.008 194.368L162.3 185.211L163.803 184.284L167.596 190.377L170.092 188.616L161.052 174.127L158.535 175.836L162.314 181.893L160.534 182.987L155.427 181.082C152.837 180.06 150.32 179.763 148.525 181.755L149.926 183.994C150.773 183.067 152.115 183.103 154.099 183.777" fill="white"/>
<path d="M189.447 170.026L187.558 172.344L178.329 163.933L181.137 179.285L179 181.335L166.298 169.758L168.479 167.701L177.796 176.191L174.958 160.695L176.745 158.442L189.447 170.026Z" fill="white"/>
<path d="M149.795 199.889L146.993 200.983L143.163 189.138L137.961 203.866L135.079 204.591L129.804 188.297L132.723 187.58L136.597 199.534L141.842 184.668L144.52 183.588L149.795 199.889Z" fill="white"/>
<path d="M187.777 154.602C189.834 155.493 192.307 156.551 194.423 157.623V157.551C192.789 156.102 184.041 146.575 184.041 146.575L185.179 144.279C185.179 144.279 197.852 145.793 200.011 146.307V146.256C198.005 145.184 195.576 143.873 193.511 142.706L187.47 139.265L188.564 136.367L203.623 145.148L201.967 149.183C201.967 149.183 190.213 147.908 188.273 147.473V147.546C189.732 148.814 197.845 157.551 197.845 157.551L195.656 161.253L179.605 154.559L181.305 151.82L187.777 154.602Z" fill="white"/>
<path d="M209.948 106.418L202.762 107.084H202.718C202.65 105.442 202.541 103.8 202.39 102.158C202.237 100.528 202.04 98.8832 201.792 97.2604H201.835L209.073 96.5866L208.584 93.5873L191.454 95.1811L191.942 98.1804L199.019 97.5212H199.092C199.34 99.144 199.537 100.789 199.691 102.419C199.844 104.049 199.953 105.7 200.019 107.345H199.946L192.876 108.004L192.949 111.04L210.087 109.417L209.948 106.418Z" fill="white"/>
<path d="M178.394 38.4187C177.356 37.4372 176.093 36.7208 174.714 36.3309C173.335 35.9409 171.882 35.8892 170.478 36.1801L171.15 39.1939C172.273 38.9146 173.455 38.9737 174.545 39.3636C175.635 39.7535 176.583 40.4566 177.269 41.3834C177.956 42.3102 178.348 43.4188 178.398 44.568C178.448 45.7172 178.152 46.8551 177.548 47.8368C176.271 46.5328 174.943 45.2577 173.594 44.0406C173.025 43.5262 172.448 43.0191 171.872 42.5264L170.106 44.5622C170.661 45.0404 171.223 45.533 171.77 46.0112C173.127 47.2355 174.455 48.5106 175.731 49.8146C174.644 50.6575 173.292 51.0909 171.913 51.0378C170.535 50.9848 169.22 50.4487 168.202 49.5248C167.455 48.8683 166.896 48.0273 166.582 47.087C166.268 46.1467 166.21 45.1406 166.415 44.171L163.372 43.758C163.18 45.2098 163.352 46.6861 163.873 48.0561C164.394 49.426 165.247 50.6472 166.356 51.6113C167.231 52.3962 168.252 53.0024 169.362 53.3954C170.472 53.7883 171.65 53.9602 172.827 53.9013C174.004 53.8425 175.158 53.554 176.223 53.0523C177.287 52.5506 178.242 51.8455 179.033 50.9774C179.823 50.1092 180.434 49.095 180.829 47.9926C181.225 46.8902 181.398 45.7211 181.339 44.5523C181.28 43.3834 180.989 42.2376 180.484 41.1802C179.979 40.1228 179.269 39.1746 178.394 38.3897" fill="white"/>
<path d="M90.9105 24.8566C90.6929 24.0959 90.3236 23.3862 89.8245 22.7699C89.3254 22.1535 88.7067 21.643 88.0051 21.2687C87.3035 20.8943 86.5334 20.6638 85.7403 20.5906C84.9473 20.5175 84.1475 20.6034 83.3885 20.8431C80.1127 21.9008 78.6755 25.2334 79.7407 28.4645C79.9567 29.2257 80.3246 29.9359 80.8226 30.553C81.3207 31.1701 81.9386 31.6814 82.6397 32.0566C83.3408 32.4317 84.1107 32.663 84.9036 32.7366C85.6965 32.8103 86.4963 32.7248 87.2553 32.4853C90.5384 31.4276 91.9757 28.0878 90.9032 24.8566H90.9105ZM76.6838 29.4498C76.1076 27.7559 76.0519 25.9301 76.5236 24.2047C76.9953 22.4792 77.9731 20.9321 79.3328 19.76C80.6924 18.588 82.3724 17.844 84.1591 17.6227C85.9457 17.4014 87.7583 17.7127 89.3662 18.5172C90.9741 19.3217 92.3048 20.5829 93.1889 22.1405C94.073 23.698 94.4706 25.4814 94.3311 27.264C94.1916 29.0465 93.5213 30.7476 92.4055 32.1508C91.2898 33.554 89.7789 34.596 88.0651 35.1441C86.9421 35.5287 85.7528 35.6859 84.5676 35.6065C83.3823 35.5272 82.2251 35.2128 81.1643 34.682C80.1034 34.1512 79.1603 33.4148 78.3908 32.5161C77.6212 31.6175 77.0409 30.5749 76.6838 29.4498Z" fill="white"/>
<path d="M71.8104 36.9698L66.2364 34.992L68.0676 24.5886L64.9815 26.3418L63.6391 35.5209L62.1289 36.4337L58.3716 30.3192L55.8691 32.0652L64.8137 46.6053L67.3454 44.9028L63.6026 38.8245L65.3901 37.745L70.4972 39.6794C73.0799 40.7081 75.6042 41.0269 77.3989 39.0418L76.0127 36.796C75.1591 37.7161 73.824 37.6798 71.8323 36.9916" fill="white"/>
<path d="M55.8399 50.7347C54.1716 52.2996 52.5714 53.9272 51.0393 55.6176L40.0957 46.1995C39.4172 46.924 38.7533 47.7209 38.0967 48.4961L49.0403 57.9142C47.5811 59.6336 46.2071 61.4134 44.9182 63.2536L33.887 53.8354C33.2887 54.6541 32.7051 55.4728 32.136 56.3059L43.1745 65.7965L45.3632 67.6511C49.4811 61.283 54.4899 55.5287 60.2393 50.5608L58.0505 48.7134L47.0047 39.2301C46.2752 39.9111 45.5456 40.5994 44.816 41.3021L55.8399 50.7347Z" fill="white"/>
<path d="M125.85 25.2261L130.016 19.0536L131.665 26.2983C130.702 26.0809 129.731 25.8853 128.746 25.7042C127.761 25.5231 126.806 25.3637 125.828 25.2116L125.85 25.2261ZM132.102 15.75L129.323 15.2356L118.481 31.0943L121.721 31.3913L124.194 27.7037C125.551 27.8921 126.901 28.1094 128.243 28.3558C129.585 28.6093 130.928 28.8919 132.256 29.2034L133.182 33.5502L136.4 34.4631L132.102 15.75Z" fill="white"/>
<path d="M108.618 13.9099L102.051 14.4025L101.614 14.4532L101.818 17.1337L101.876 17.822C102.664 28.1095 101.147 29.3338 99.3592 29.4715C99.0239 29.4907 98.6876 29.4639 98.3597 29.3918L98.2502 31.8985C98.9522 32.0079 99.6638 32.0443 100.373 32.0071C103.788 31.7536 105.619 29.4135 104.751 18.4885L104.619 16.8512L105.488 16.7788C107.188 16.6556 108.902 16.5687 110.595 16.5324L111.696 30.9494L114.739 30.7176L113.783 16.5107L113.571 13.8157C111.937 13.8157 110.298 13.8471 108.654 13.9099" fill="white"/>
<path d="M116.234 198.795C116.233 198.113 116.028 197.447 115.646 196.881C115.263 196.315 114.72 195.874 114.085 195.614C113.451 195.354 112.753 195.287 112.08 195.421C111.406 195.555 110.788 195.884 110.303 196.366C109.818 196.849 109.488 197.463 109.355 198.132C109.222 198.801 109.291 199.494 109.554 200.124C109.817 200.753 110.262 201.291 110.833 201.67C111.404 202.049 112.075 202.251 112.762 202.251C113.218 202.251 113.67 202.161 114.092 201.988C114.514 201.814 114.897 201.559 115.22 201.238C115.542 200.917 115.798 200.536 115.972 200.117C116.146 199.698 116.235 199.248 116.234 198.795Z" fill="white"/>
<path d="M29.0498 80.9379C29.6871 81.1926 30.3861 81.2539 31.0585 81.114C31.7308 80.9741 32.3463 80.6393 32.827 80.152C33.3078 79.6648 33.6322 79.0469 33.7592 78.3765C33.8862 77.7061 33.8101 77.0134 33.5407 76.3859C33.2712 75.7585 32.8204 75.2245 32.2452 74.8515C31.67 74.4785 30.9964 74.2832 30.3095 74.2905C29.6226 74.2977 28.9533 74.5071 28.3863 74.8921C27.8192 75.2771 27.3798 75.8205 27.1238 76.4535C26.7826 77.302 26.7938 78.2501 27.1547 79.0905C27.5157 79.9308 28.197 80.5951 29.0498 80.9379Z" fill="white"/>
<path d="M149.722 30.3408C149.413 30.95 149.292 31.6365 149.376 32.3135C149.46 32.9906 149.744 33.6277 150.193 34.1444C150.641 34.6611 151.234 35.034 151.896 35.2161C152.558 35.3982 153.26 35.3812 153.912 35.1673C154.564 34.9534 155.138 34.5522 155.561 34.0145C155.983 33.4767 156.236 32.8266 156.286 32.1463C156.337 31.466 156.183 30.7861 155.845 30.1926C155.506 29.5992 154.998 29.1187 154.384 28.8122C153.977 28.6077 153.533 28.4851 153.078 28.4514C152.624 28.4176 152.166 28.4733 151.733 28.6153C151.3 28.7573 150.9 28.9828 150.554 29.2789C150.209 29.575 149.926 29.9359 149.722 30.3408Z" fill="white"/>
</svg>
